# xmcd
#
# Track frame offsets: 
#        150
#        15732
#        26553
#        40148
#        50476
#        67197
#        77338
#        90374
#        104421
#        120028
#
# Disc length: 1787 seconds
#
# Revision: 0
# Processed by: cddbd v1.5.2PL0 Copyright (c) Steve Scherf et al.
# Submitted via: ExactAudioCopy v0.95b4
#
DISCID=6e06f90a
DTITLE=Del McCoury - Celebrating 50 Years Of Del McCoury [Disc 1]
DYEAR=2009
DGENRE=
TTITLE0=I Wonder Where You Are Tonight
TTITLE1=Remembering
TTITLE2=Rain And Snow
TTITLE3=Are You Teasin' Me
TTITLE4=Dreams
TTITLE5=White House Blues
TTITLE6=Dark Hollow
TTITLE7=You're The Girl Of My Dreams
TTITLE8=Don't Stop The Music
TTITLE9=The Prisoner's Song
EXTD=
EXTT0=
EXTT1=
EXTT2=
EXTT3=
EXTT4=
EXTT5=
EXTT6=
EXTT7=
EXTT8=
EXTT9=
PLAYORDER=
